<svg width="22" height="22" viewBox="0 0 22 22" fill="none" xmlns="http://www.w3.org/2000/svg">
<path d="M10.9956 1.98214C13.9333 1.98214 14.2782 1.99524 15.4393 2.04763C16.5131 2.09565 17.0937 2.27466 17.4821 2.42747C17.9972 2.6283 18.3639 2.86406 18.748 3.24826C19.1321 3.63247 19.3722 3.99921 19.5687 4.51439C19.7171 4.90296 19.9004 5.48363 19.9484 6.55765C20.0008 7.71899 20.0139 8.0639 20.0139 11.0022C20.0139 13.9405 20.0008 14.2854 19.9484 15.4467C19.9004 16.5207 19.7214 17.1014 19.5687 17.49C19.3679 18.0052 19.1321 18.3719 18.748 18.7561C18.3639 19.1403 17.9972 19.3804 17.4821 19.5769C17.0937 19.7253 16.5131 19.9087 15.4393 19.9567C14.2782 20.0091 13.9333 20.0222 10.9956 20.0222C8.05794 20.0222 7.7131 20.0091 6.55198 19.9567C5.47818 19.9087 4.89762 19.7297 4.50913 19.5769C3.99405 19.3761 3.62738 19.1403 3.24325 18.7561C2.85913 18.3719 2.61905 18.0052 2.42262 17.49C2.27421 17.1014 2.09087 16.5207 2.04286 15.4467C1.99048 14.2854 1.97738 13.9405 1.97738 11.0022C1.97738 8.0639 1.99048 7.71899 2.04286 6.55765C2.09087 5.48363 2.26984 4.90296 2.42262 4.51439C2.62341 3.99921 2.85913 3.63247 3.24325 3.24826C3.62738 2.86406 3.99405 2.62393 4.50913 2.42747C4.89762 2.27902 5.47818 2.09565 6.55198 2.04763C7.7131 1.99087 8.0623 1.98214 10.9956 1.98214ZM10.9956 0C8.00992 0 7.63452 0.0130978 6.46032 0.0654892C5.29048 0.117881 4.49167 0.305616 3.79325 0.576305C3.06865 0.855725 2.45754 1.23556 1.84643 1.84679C1.23532 2.45803 0.859921 3.07363 0.57619 3.79401C0.305556 4.49256 0.117857 5.29153 0.0654762 6.46597C0.0130952 7.63604 0 8.01151 0 10.9978C0 13.9841 0.0130952 14.3596 0.0654762 15.534C0.117857 16.7041 0.305556 17.5031 0.57619 18.206C0.855556 18.9307 1.23532 19.542 1.84643 20.1532C2.45754 20.7644 3.07302 21.1399 3.79325 21.4237C4.49167 21.6944 5.29048 21.8821 6.46468 21.9345C7.63889 21.9869 8.00992 22 11 22C13.9901 22 14.3611 21.9869 15.5353 21.9345C16.7052 21.8821 17.504 21.6944 18.2067 21.4237C18.9314 21.1443 19.5425 20.7644 20.1536 20.1532C20.7647 19.542 21.1401 18.9264 21.4238 18.206C21.6944 17.5074 21.8821 16.7085 21.9345 15.534C21.9869 14.3596 22 13.9885 22 10.9978C22 8.00714 21.9869 7.63604 21.9345 6.4616C21.8821 5.29153 21.6944 4.49256 21.4238 3.78964C21.1444 3.06489 20.7647 2.45366 20.1536 1.84243C19.5425 1.2312 18.927 0.855725 18.2067 0.571939C17.5083 0.30125 16.7095 0.113515 15.5353 0.0611232C14.3567 0.0130978 13.9813 0 10.9956 0Z" fill="white"/>
<path d="M10.9956 5.35265C7.87897 5.35265 5.34723 7.88053 5.34723 11.0022C5.34723 14.1238 7.87461 16.6517 10.9956 16.6517C14.1167 16.6517 16.644 14.1238 16.644 11.0022C16.644 7.88053 14.1167 5.35265 10.9956 5.35265ZM10.9956 14.6652C8.97024 14.6652 7.32897 13.0236 7.32897 10.9978C7.32897 8.97202 8.97024 7.33042 10.9956 7.33042C13.021 7.33042 14.6623 8.97202 14.6623 10.9978C14.6623 13.0236 13.021 14.6652 10.9956 14.6652Z" fill="white"/>
<path d="M16.8667 6.44413C17.5947 6.44413 18.1849 5.85381 18.1849 5.12562C18.1849 4.39742 17.5947 3.8071 16.8667 3.8071C16.1386 3.8071 15.5484 4.39742 15.5484 5.12562C15.5484 5.85381 16.1386 6.44413 16.8667 6.44413Z" fill="white"/>
</svg>
