<svg width="23" height="17" viewBox="0 0 23 17" fill="none" xmlns="http://www.w3.org/2000/svg">
<path d="M23 2.00862C22.1498 2.35385 21.2423 2.584 20.2887 2.68862C21.2652 2.15508 22.012 1.31815 22.3566 0.313846C21.449 0.805538 20.4381 1.16123 19.3581 1.36C18.4965 0.523077 17.2787 0 15.9116 0C13.3037 0 11.2013 1.92492 11.2013 4.28923C11.2013 4.624 11.2473 4.94831 11.3277 5.27262C7.41009 5.09477 3.94056 3.38954 1.60839 0.784615C1.20629 1.42277 0.965035 2.15508 0.965035 2.93969C0.965035 4.42523 1.79221 5.74338 3.06743 6.51754C2.2977 6.49662 1.56244 6.29785 0.930569 5.984C0.930569 6.00492 0.930569 6.01538 0.930569 6.03631C0.930569 8.11815 2.55045 9.85477 4.71029 10.2418C4.31968 10.336 3.89461 10.3883 3.46953 10.3883C3.17083 10.3883 2.87213 10.3569 2.58492 10.3151C3.18232 12.0203 4.92857 13.2652 6.98501 13.2966C5.37662 14.4474 3.34316 15.1378 1.12587 15.1378C0.746753 15.1378 0.367632 15.1169 0 15.0751C2.09091 16.2886 4.56094 17 7.22627 17C15.9001 17 20.6334 10.4615 20.6334 4.79138C20.6334 4.60308 20.6334 4.42523 20.6219 4.23692C21.5639 3.63015 22.3681 2.87692 23 2.00862Z" fill="white"/>
</svg>
