<svg width="23" height="14" viewBox="0 0 23 14" fill="none" xmlns="http://www.w3.org/2000/svg">
<path fill-rule="evenodd" clip-rule="evenodd" d="M11.25 13.942H12.6267C12.6267 13.942 13.0421 13.8928 13.2543 13.6491C13.4494 13.4254 13.4429 13.0046 13.4429 13.0046C13.4429 13.0046 13.4162 11.0365 14.2722 10.747C15.1281 10.4576 16.1995 12.6478 17.3494 13.4902C18.2176 14.1269 18.8775 13.9869 18.8775 13.9869L21.9483 13.9412C21.9483 13.9412 23.559 13.8366 22.7938 12.4879C22.7314 12.3782 22.35 11.4909 20.5101 9.66878C18.5844 7.76198 18.8427 8.07042 21.162 4.77174C22.5743 2.76299 23.1395 1.53614 22.963 1.01171C22.7946 0.511462 21.7556 0.643651 21.7556 0.643651L18.2977 0.666115C18.1443 0.647434 17.989 0.677488 17.8515 0.752512C17.6661 0.870878 17.5462 1.14822 17.5462 1.14822C17.1884 2.1382 16.7621 3.09842 16.2708 4.02095C14.7322 6.81074 14.1151 6.95848 13.8632 6.78568C13.2777 6.3822 13.4243 5.16399 13.4243 4.29828C13.4243 1.59489 13.809 0.467399 12.6761 0.176238C12.3003 0.0794727 12.0234 0.0155382 11.0621 0.00344252C9.82798 -0.0103811 8.78414 0.00344211 8.19298 0.316203C7.79942 0.52183 7.49574 0.979739 7.68118 1.00739C7.90955 1.04022 8.42701 1.15599 8.70154 1.55429C9.05623 2.07267 9.04328 3.22349 9.04328 3.22349C9.04328 3.22349 9.24735 6.40553 8.56792 6.80123C8.10228 7.07252 7.46254 6.51871 6.08992 3.98811C5.62301 3.1085 5.20969 2.19771 4.85254 1.2614C4.78924 1.10225 4.69157 0.961333 4.56749 0.850142C4.40672 0.736332 4.22601 0.658447 4.03626 0.621187L0.750069 0.644515C0.750069 0.644515 0.256899 0.659203 0.0755026 0.888158C-0.0864583 1.09206 0.0625454 1.51281 0.0625454 1.51281C0.0625454 1.51281 2.63529 7.93391 5.54816 11.1704C8.22051 14.1373 11.2524 13.9429 11.2524 13.9429L11.25 13.942Z" fill="white"/>
</svg>
